<?xml version="1.0" standalone="no"?>
<!DOCTYPE svg PUBLIC "-//W3C//DTD SVG 20010904//EN"
 "http://www.w3.org/TR/2001/REC-SVG-20010904/DTD/svg10.dtd">
<svg version="1.0" xmlns="http://www.w3.org/2000/svg"
 width="700.000000pt" height="700.000000pt" viewBox="0 0 700.000000 700.000000"
 preserveAspectRatio="xMidYMid meet">
<metadata>
Created by potrace 1.11, written by Peter Selinger 2001-2013
</metadata>
<g transform="translate(0.000000,700.000000) scale(0.100000,-0.100000)"
fill="#000000" stroke="none">
<path d="M2619 6346 c-2 -2 -61 -6 -132 -8 -70 -3 -130 -7 -133 -11 -3 -3 -12
-3 -20 0 -8 3 -14 -1 -14 -8 0 -10 -3 -10 -11 -2 -7 7 -20 8 -38 2 -14 -4 -37
-10 -51 -11 -14 -2 -29 -6 -35 -9 -5 -4 -20 -5 -32 -4 -13 1 -23 -2 -23 -7 0
-5 -8 -8 -17 -6 -10 1 -23 -1 -29 -4 -10 -7 -58 -19 -81 -20 -7 -1 -13 -5 -13
-10 0 -4 -3 -7 -7 -6 -13 2 -67 -14 -81 -25 -7 -6 -23 -12 -36 -13 -12 -1 -47
-14 -76 -28 -30 -14 -60 -26 -67 -26 -7 0 -13 -4 -13 -9 0 -5 -12 -12 -27 -16
-15 -3 -30 -10 -33 -13 -3 -4 -23 -16 -45 -27 -22 -11 -42 -22 -45 -25 -3 -3
-16 -11 -30 -18 -28 -13 -63 -34 -70 -42 -3 -3 -31 -23 -62 -43 -32 -21 -58
-42 -58 -48 0 -5 -4 -8 -8 -6 -26 7 -387 -334 -373 -352 1 -2 -10 -12 -26 -22
-15 -10 -25 -19 -21 -19 7 0 -18 -32 -49 -66 -7 -7 -13 -16 -13 -21 0 -4 -11
-20 -25 -35 -14 -15 -25 -32 -25 -38 0 -5 -4 -10 -10 -10 -5 0 -10 -7 -10 -15
0 -8 -4 -15 -10 -15 -5 0 -10 -7 -10 -15 0 -9 -7 -18 -15 -21 -8 -4 -12 -10
-9 -15 3 -5 2 -9 -3 -9 -4 0 -19 -23 -32 -50 -14 -28 -29 -50 -35 -50 -5 0 -7
-3 -3 -6 3 -3 -7 -27 -22 -52 -14 -26 -35 -66 -45 -89 -11 -24 -23 -43 -28
-43 -5 0 -7 -4 -4 -9 3 -4 -6 -31 -19 -60 -14 -28 -25 -53 -25 -55 0 -3 -5
-17 -12 -33 -6 -15 -13 -32 -14 -38 -2 -5 -20 -57 -39 -114 -19 -57 -35 -112
-35 -122 0 -11 -5 -19 -11 -19 -5 0 -8 -4 -5 -8 3 -5 -2 -34 -10 -64 -8 -31
-15 -68 -16 -82 -1 -14 -5 -26 -9 -26 -3 0 -5 -18 -5 -41 1 -22 -1 -42 -5 -45
-4 -2 -11 -37 -15 -76 -4 -40 -9 -76 -10 -80 -1 -5 -2 -12 -3 -17 -1 -8 -35
-20 -58 -22 -5 0 -15 -6 -23 -13 -8 -6 -27 -18 -42 -26 -16 -7 -26 -15 -24
-17 2 -2 -14 -23 -35 -46 -22 -22 -39 -45 -39 -50 0 -4 -9 -26 -20 -49 -11
-22 -17 -45 -14 -49 3 -5 1 -9 -4 -9 -5 0 -9 -10 -8 -22 1 -13 -2 -26 -7 -29
-5 -4 -10 -58 -11 -122 0 -74 -5 -113 -11 -109 -5 3 -5 -1 1 -9 7 -8 14 -34
18 -59 11 -84 20 -127 30 -152 4 -9 5 -22 1 -28 -3 -5 -1 -10 4 -10 6 0 10 -3
10 -7 -4 -16 14 -93 21 -93 3 0 7 -6 8 -12 2 -33 14 -73 23 -76 5 -2 7 -8 4
-12 -3 -5 -1 -18 5 -30 5 -11 15 -29 20 -40 6 -11 10 -26 10 -34 0 -7 7 -19
15 -26 9 -7 13 -15 11 -18 -7 -6 33 -85 48 -94 6 -4 8 -8 3 -8 -9 0 79 -127
115 -164 15 -17 28 -33 28 -38 0 -4 7 -8 16 -8 8 0 12 -5 9 -10 -3 -5 0 -10 8
-10 8 0 17 -7 21 -15 4 -10 -1 -15 -17 -16 -12 0 -31 -3 -42 -5 -11 -3 -27 -6
-35 -8 -16 -3 -41 -12 -80 -29 -14 -6 -28 -10 -32 -9 -5 1 -8 -3 -8 -8 0 -6
-4 -10 -10 -10 -27 0 -196 -174 -182 -188 1 -1 -4 -15 -13 -32 -8 -16 -17 -39
-19 -52 -3 -13 -5 -23 -6 -23 -18 0 -20 -232 -2 -290 8 -27 15 -54 16 -60 5
-20 41 -90 51 -97 7 -5 7 -8 0 -8 -5 0 -2 -5 7 -11 10 -5 18 -16 18 -22 0 -7
8 -20 18 -29 9 -9 37 -37 61 -62 24 -25 48 -46 52 -46 4 0 10 -8 13 -18 3 -10
18 -25 33 -34 16 -9 43 -30 61 -46 19 -17 48 -41 65 -54 79 -60 162 -167 143
-185 -3 -4 -1 -12 5 -20 7 -8 7 -13 2 -13 -6 0 -10 -10 -9 -22 3 -34 -47 -92
-93 -110 -23 -9 -41 -13 -41 -9 0 4 -7 8 -15 8 -8 0 -15 -3 -15 -7 0 -3 -9 -6
-20 -7 -11 -1 -20 2 -20 6 0 4 -16 8 -35 9 -19 2 -55 11 -80 22 -25 11 -49 20
-53 21 -4 0 -16 6 -27 12 -11 6 -24 11 -28 12 -4 0 -11 5 -15 11 -4 6 -15 14
-26 17 -16 6 -18 3 -14 -23 3 -17 0 -30 -6 -30 -6 0 -5 -4 3 -9 11 -7 11 -10
0 -15 -11 -5 -11 -7 -1 -12 6 -3 9 -10 6 -16 -11 -17 -10 -88 1 -88 6 0 4 -4
-3 -9 -8 -4 -13 -12 -11 -17 14 -51 16 -74 5 -74 -7 0 -6 -4 3 -9 11 -7 11 -9
0 -14 -12 -5 -12 -7 0 -15 8 -6 9 -12 3 -16 -5 -3 -7 -18 -4 -33 6 -30 26 -56
36 -46 3 4 6 1 6 -6 0 -7 5 -9 10 -6 6 4 16 2 23 -3 7 -5 26 -13 42 -17 17 -5
37 -10 45 -12 39 -10 74 -13 185 -13 66 0 138 5 160 10 22 6 46 12 53 12 6 1
12 4 12 8 0 4 6 7 13 7 36 0 197 119 197 145 0 6 3 8 7 5 11 -12 96 130 98
163 0 3 4 11 8 18 5 6 5 17 2 22 -3 6 -2 10 2 10 5 0 9 10 9 23 1 12 4 50 7
85 3 34 3 62 -1 62 -4 0 -7 19 -6 43 0 23 -2 47 -5 52 -8 14 -10 35 -4 35 3 0
33 -13 67 -29 78 -36 99 -45 108 -43 5 1 8 -3 8 -8 0 -6 4 -10 9 -10 5 0 22
-5 38 -11 15 -6 28 -10 28 -9 0 1 13 -5 29 -14 16 -8 33 -13 38 -10 4 3 8 0 8
-5 0 -6 8 -11 18 -11 10 0 22 -3 26 -7 4 -4 19 -9 34 -11 15 -2 30 -9 35 -15
9 -13 4 41 -8 83 -4 14 -8 37 -9 53 -2 25 -26 63 -26 42 0 -6 -4 -5 -8 2 -4 6
-19 14 -32 16 -14 2 -32 7 -40 10 -8 3 -26 8 -40 10 -30 6 -159 44 -180 53 -8
4 -24 9 -35 11 -11 2 -21 7 -23 12 -2 5 -12 7 -22 4 -12 -3 -20 0 -20 8 0 7
-3 10 -6 6 -4 -3 -20 1 -36 9 -17 9 -33 12 -36 8 -4 -4 -1 -9 6 -11 6 -3 10
-9 6 -14 -3 -5 0 -9 5 -9 6 0 10 -3 9 -7 -3 -15 28 -73 36 -66 4 4 4 0 1 -9
-6 -15 -12 -14 -53 9 -26 14 -56 33 -66 42 -16 13 -18 13 -12 1 7 -13 6 -13
-6 0 -7 8 -29 24 -48 34 -56 31 -174 109 -182 121 -5 6 -8 6 -8 0 0 -6 -3 -6
-8 0 -4 6 -27 26 -52 45 -25 19 -51 40 -58 47 -7 7 -18 13 -24 13 -6 0 -9 3
-5 6 3 4 22 -3 42 -15 20 -11 43 -21 51 -21 8 0 14 -4 14 -10 0 -5 8 -10 18
-10 9 0 26 -7 36 -15 10 -8 23 -12 27 -9 5 3 9 1 9 -4 0 -5 10 -13 23 -17 12
-4 24 -8 27 -9 3 -2 19 -9 35 -16 17 -7 33 -14 37 -14 3 -1 10 -4 14 -9 4 -4
16 -7 26 -7 10 0 18 -4 18 -8 0 -5 6 -9 13 -9 6 0 21 -4 31 -9 19 -7 19 -6 -1
22 -31 43 -131 143 -188 189 -27 22 -51 43 -53 48 -2 4 -10 7 -18 7 -8 0 -14
5 -14 10 0 6 -4 10 -9 10 -10 0 -121 105 -121 115 0 3 -8 18 -17 32 -51 78 -1
189 92 205 11 1 23 8 27 13 5 7 8 7 8 0 0 -5 19 -10 43 -9 23 0 47 -2 52 -6 6
-3 30 -12 55 -20 25 -7 49 -17 54 -22 6 -4 18 -8 28 -8 10 0 18 -4 18 -10 0
-5 9 -10 19 -10 11 0 21 -6 24 -12 3 -8 8 -5 13 8 8 19 11 20 22 8 7 -8 11
-14 9 -14 -16 0 283 -306 342 -350 18 -14 39 -30 46 -37 16 -16 27 -5 16 16
-5 9 -12 34 -16 56 -5 22 -10 47 -12 55 -2 8 -4 23 -5 33 -1 9 -5 17 -8 17 -4
0 -7 6 -7 13 0 6 -3 26 -7 42 -3 17 -8 40 -10 53 -3 12 -7 26 -10 31 -3 4 -8
23 -10 42 -6 39 -10 58 -19 79 -10 28 -31 125 -29 143 0 9 -4 17 -10 17 -6 0
-9 3 -6 6 4 3 -2 34 -11 68 -10 35 -16 71 -15 80 1 9 -1 16 -6 16 -5 0 -7 8
-6 17 3 19 34 33 55 25 20 -8 63 -7 84 1 9 3 17 3 17 -1 0 -9 94 -7 109 3 6 3
11 2 11 -2 0 -5 11 -9 25 -9 14 0 25 5 25 11 0 6 3 7 8 0 4 -5 18 -10 32 -10
20 0 26 -6 28 -30 2 -17 7 -41 12 -55 5 -14 12 -41 15 -60 3 -19 9 -51 13 -70
5 -19 9 -38 10 -42 1 -5 2 -9 3 -10 3 -10 9 -48 13 -76 3 -18 10 -40 17 -48 8
-10 8 -14 0 -14 -7 0 -7 -8 0 -27 6 -16 13 -37 15 -48 1 -11 5 -29 7 -40 11
-47 21 -111 19 -117 -1 -5 2 -8 6 -8 8 0 15 -37 14 -77 0 -13 3 -23 7 -23 4 0
8 -12 9 -27 1 -16 7 -43 13 -60 6 -18 8 -37 4 -43 -3 -5 -2 -10 4 -10 5 0 10
-8 10 -17 -1 -18 8 -76 12 -80 1 -2 3 -12 4 -23 1 -11 3 -21 5 -22 1 -2 4 -16
6 -33 l5 -29 -21 19 c-12 11 -24 18 -27 16 -2 -1 -41 18 -85 43 -45 25 -85 46
-90 46 -4 0 -8 5 -8 10 0 6 -5 10 -11 10 -6 0 -29 14 -50 31 -21 17 -39 27
-39 22 0 -4 -4 -3 -8 3 -4 5 -24 23 -44 38 -34 26 -38 27 -38 9 0 -10 5 -24
12 -31 7 -7 9 -12 6 -12 -3 0 -2 -17 3 -37 14 -57 20 -86 22 -105 1 -10 4 -18
7 -18 5 0 10 -28 13 -68 0 -14 34 -31 72 -37 11 -2 34 -6 50 -9 17 -3 48 -8
70 -11 22 -3 51 -7 65 -10 58 -12 301 -22 375 -15 12 1 0 9 -30 19 -27 10 -53
16 -58 14 -4 -2 -7 1 -7 6 0 6 -6 11 -14 11 -7 0 -35 9 -62 21 -97 41 -95 39
-88 78 3 20 7 46 7 59 1 12 4 22 7 22 3 0 6 8 7 18 1 9 4 31 8 47 3 17 8 45
11 64 2 19 7 37 9 41 3 5 7 25 10 46 6 47 15 94 31 164 3 14 6 35 7 48 1 12 6
22 12 22 5 0 3 5 -5 10 -12 8 -12 10 -1 10 8 0 11 7 8 20 -3 11 -2 20 1 20 4
0 8 19 9 41 2 23 6 47 11 53 4 6 7 21 6 34 0 12 2 22 5 22 4 0 8 10 8 23 1 23
8 63 18 107 3 14 8 41 11 60 7 41 12 63 14 70 1 3 2 9 1 13 -1 4 4 17 10 29 8
15 13 17 19 8 10 -15 21 -15 31 2 5 7 9 8 9 2 0 -6 7 -11 15 -11 8 0 15 5 15
11 0 6 4 5 9 -2 4 -8 12 -14 16 -14 4 0 12 6 16 14 5 7 9 8 9 2 0 -6 7 -11 15
-11 8 0 15 5 15 11 0 6 4 5 9 -2 11 -17 21 -17 32 0 5 7 9 8 9 2 0 -6 7 -11
15 -11 8 0 15 5 15 11 0 7 3 8 8 1 4 -6 27 -11 52 -10 l45 0 16 -80 c9 -44 15
-83 13 -87 -2 -4 0 -9 5 -12 5 -3 8 -19 7 -36 -1 -16 1 -30 4 -30 4 0 7 -6 7
-12 0 -7 6 -40 13 -73 7 -33 13 -69 14 -81 1 -11 5 -24 8 -30 3 -5 4 -17 3
-26 -2 -10 0 -18 4 -18 4 0 8 -15 9 -33 1 -19 7 -49 12 -68 6 -18 10 -46 10
-61 0 -16 4 -28 9 -28 4 0 7 -16 6 -35 -1 -19 2 -35 5 -35 4 0 7 -6 7 -12 1
-7 5 -33 9 -58 4 -25 7 -51 7 -57 0 -7 3 -13 6 -13 7 0 14 -40 13 -77 0 -13 4
-23 9 -23 5 0 8 -3 8 -7 -4 -25 2 -73 9 -73 9 0 10 4 15 51 2 14 7 30 11 37 4
7 5 12 3 12 -3 0 -1 17 4 38 5 20 12 55 15 77 4 22 9 41 13 43 4 1 6 16 5 32
-1 17 1 30 5 30 4 0 7 10 8 23 1 23 7 52 23 127 6 25 12 59 15 77 2 18 6 36 8
40 3 5 8 27 11 49 4 23 11 55 16 73 5 17 9 34 9 36 1 3 1 6 2 8 2 5 10 54 12
77 2 14 6 32 9 40 4 8 9 29 11 45 3 17 8 41 11 55 3 14 7 37 10 52 7 41 14 48
44 46 15 -1 33 1 40 6 7 4 12 3 12 -2 0 -12 43 -10 52 3 5 7 8 7 8 0 0 -11
151 -12 169 -1 6 4 11 3 11 -1 0 -5 11 -9 25 -9 14 0 25 4 25 8 0 5 6 3 14 -4
8 -7 12 -16 9 -20 -4 -8 -7 -19 -18 -71 -2 -12 -10 -44 -17 -72 -7 -27 -11
-53 -10 -57 1 -5 -2 -8 -7 -8 -5 0 -7 -9 -4 -20 3 -11 1 -20 -5 -20 -6 0 -9
-11 -7 -25 1 -14 -1 -25 -4 -25 -4 0 -8 -13 -9 -30 -1 -16 -7 -42 -13 -57 -6
-15 -13 -39 -15 -53 -1 -14 -5 -36 -9 -50 -3 -14 -8 -36 -11 -49 -3 -14 -7
-28 -9 -31 -2 -4 -7 -22 -10 -41 -9 -45 -13 -64 -15 -64 -1 0 -4 -11 -6 -24
-2 -14 -11 -50 -19 -80 -8 -31 -16 -68 -19 -83 -2 -15 -7 -31 -9 -35 -3 -5 -8
-24 -11 -43 -3 -19 -12 -59 -20 -87 -8 -29 -12 -53 -9 -53 3 0 1 -6 -4 -13 -5
-6 -9 -21 -9 -32 1 -11 -2 -22 -6 -25 -4 -3 -9 -19 -12 -35 -2 -17 -5 -31 -6
-32 -3 -3 -4 -6 -13 -53 -10 -51 -15 -69 -29 -125 -16 -59 8 -54 -293 -61
-121 -2 -223 -8 -228 -13 -4 -4 -3 -30 4 -57 6 -27 13 -58 15 -69 1 -11 5 -29
8 -40 2 -11 6 -27 8 -35 1 -8 8 -18 13 -22 6 -5 5 -8 -3 -8 -10 0 -10 -5 -2
-21 7 -11 9 -26 7 -34 -3 -7 6 -18 21 -25 18 -8 28 -8 30 -1 2 6 11 8 20 3 21
-9 53 -9 70 1 6 5 12 4 12 0 0 -13 93 -10 103 2 4 7 10 7 15 0 11 -16 105 -11
108 6 2 8 8 32 14 54 6 22 13 48 15 58 2 10 6 26 9 35 3 9 8 32 11 51 3 19 10
41 14 50 5 9 7 24 6 34 -2 9 1 17 6 17 5 0 8 5 6 11 -2 12 15 17 83 24 25 2
59 6 76 9 17 3 46 8 65 10 19 3 50 8 69 11 19 4 46 9 60 10 14 2 25 4 25 5 0
1 14 4 30 6 36 6 44 13 51 45 9 39 12 54 14 54 1 0 3 9 5 20 2 11 15 62 29
112 13 50 22 94 18 97 -3 3 -1 6 5 6 6 0 14 21 18 47 4 27 11 55 15 63 4 8 11
31 14 50 8 39 14 65 16 65 1 0 3 7 5 15 2 8 8 29 13 47 6 17 8 34 5 37 -3 3
-1 11 4 18 10 12 15 29 27 93 2 11 9 32 14 46 6 15 8 30 5 33 -4 3 -1 6 6 6 7
0 10 10 7 25 -3 14 0 25 5 25 5 0 8 3 8 8 -1 4 0 10 1 15 3 10 4 13 20 82 17
75 17 74 20 78 1 1 3 9 5 17 2 8 9 33 15 55 6 22 13 48 15 58 2 10 7 27 10 37
5 16 8 29 18 75 2 6 6 16 10 23 5 6 6 12 2 12 -3 0 -1 8 4 19 9 16 22 19 84
18 41 0 79 3 85 7 7 4 12 3 12 -1 0 -5 11 -9 25 -9 14 0 25 5 25 11 0 5 4 4 9
-3 11 -17 21 -17 32 0 5 7 9 8 9 2 0 -6 7 -11 15 -11 8 0 15 5 15 11 0 6 4 5
9 -2 4 -8 12 -14 16 -14 4 0 12 6 16 14 5 7 9 8 9 2 0 -11 66 -11 77 0 8 7 33
-28 38 -52 1 -9 8 -37 15 -62 7 -25 13 -52 15 -60 2 -8 8 -27 14 -42 6 -16 9
-28 6 -28 -2 0 2 -18 10 -40 8 -22 12 -40 8 -40 -3 0 0 -7 7 -15 7 -8 10 -15
7 -15 -3 0 1 -23 9 -52 30 -101 39 -158 24 -158 -5 0 -10 -4 -10 -9 0 -5 6 -8
13 -7 6 0 12 -2 12 -5 0 -3 6 -13 13 -22 12 -13 21 -52 24 -94 1 -7 5 -13 9
-13 4 0 6 -9 4 -20 -2 -11 0 -22 5 -25 5 -3 7 -12 4 -19 -3 -8 -1 -17 5 -21 6
-3 11 -16 11 -29 0 -12 3 -26 7 -30 4 -3 8 -14 9 -24 2 -18 4 -25 24 -105 13
-49 29 -57 58 -29 8 7 18 10 23 6 5 -3 16 2 25 10 8 9 24 16 35 16 10 0 19 5
19 11 0 5 4 8 9 4 5 -3 13 0 16 6 4 5 13 8 21 5 8 -3 14 -2 14 2 0 4 15 13 33
21 17 8 55 24 83 37 98 44 89 91 89 -431 -1 -353 2 -463 12 -473 16 -17 24
-17 34 0 5 7 9 8 9 2 0 -13 92 -13 103 1 4 6 10 5 16 -3 4 -8 12 -14 16 -14 4
0 12 6 16 14 5 7 9 8 9 2 0 -13 92 -13 103 1 4 7 10 7 15 0 8 -12 27 -13 38
-3 4 4 13 3 21 -3 7 -6 13 -10 14 -8 6 32 5 39 -4 39 -8 0 -8 3 -2 8 13 9 15
92 2 92 -5 0 -5 5 2 13 8 10 7 17 -2 27 -9 10 -9 11 1 6 15 -9 15 -1 1 26 -6
11 -7 18 -1 14 6 -3 9 7 8 24 0 17 -5 30 -11 30 -7 0 -7 3 0 8 13 9 15 92 2
92 -5 0 -5 5 2 13 8 10 7 17 -2 27 -9 10 -9 11 1 6 15 -9 15 -1 1 26 -6 11 -7
18 -1 14 6 -3 9 7 8 24 0 17 -5 30 -11 30 -7 0 -7 3 0 8 13 9 15 92 3 92 -5 0
-6 6 -2 12 11 18 12 48 2 48 -5 0 -6 6 -1 13 10 16 11 68 2 87 -4 8 -1 21 7
28 12 11 14 9 14 -8 0 -11 5 -20 11 -20 5 0 8 -4 4 -9 -3 -5 0 -13 6 -16 5 -4
8 -13 5 -20 -3 -8 -1 -15 5 -17 5 -2 11 -13 14 -26 2 -12 7 -28 12 -35 4 -6 8
-18 10 -26 1 -8 5 -17 10 -20 4 -3 10 -15 11 -26 2 -11 13 -37 23 -57 11 -21
17 -38 14 -38 -4 0 0 -12 8 -27 8 -16 19 -39 24 -53 6 -14 15 -36 21 -50 6
-14 16 -42 23 -62 7 -21 17 -38 22 -38 5 0 7 -6 4 -14 -3 -8 1 -22 8 -33 8
-10 15 -26 15 -35 0 -10 5 -18 11 -18 6 0 9 -7 5 -15 -3 -8 -1 -15 5 -15 6 0
8 -4 4 -9 -3 -5 -1 -12 5 -16 5 -3 10 -15 10 -26 0 -10 5 -19 10 -19 6 0 10
-11 10 -24 0 -18 7 -25 27 -29 16 -3 31 0 35 6 6 9 10 8 17 -1 4 -8 12 -14 16
-14 4 0 12 6 16 14 5 7 9 8 9 2 0 -13 92 -13 103 1 4 6 10 5 16 -3 11 -17 21
-17 32 0 5 7 9 8 9 2 0 -13 92 -13 103 1 4 7 10 7 15 0 8 -12 32 -14 32 -3 -1
28 -14 68 -22 68 -5 0 -7 4 -3 9 3 5 1 12 -4 16 -6 3 -7 13 -4 22 4 11 3 14
-5 9 -8 -4 -12 0 -12 12 0 10 -9 37 -20 60 -11 22 -20 45 -20 50 0 4 -10 28
-21 52 -12 24 -22 54 -23 66 0 12 -3 20 -5 18 -7 -6 -84 188 -83 209 0 9 -2
16 -6 13 -4 -2 -22 37 -41 87 -19 51 -39 95 -44 98 -6 4 13 24 42 44 28 20 51
41 51 47 0 5 4 7 8 4 4 -2 23 19 42 47 19 29 40 55 45 59 6 4 6 8 1 8 -5 0 -4
6 1 13 6 6 16 28 22 48 18 56 21 71 36 181 2 16 -1 31 -6 34 -6 3 -5 11 2 20
9 11 8 14 -5 15 -9 1 -22 2 -28 3 -7 1 -29 -3 -48 -9 -19 -7 -41 -10 -47 -8
-7 3 -13 0 -13 -7 0 -6 -4 -9 -8 -6 -8 5 -131 -25 -172 -41 -8 -3 -18 -5 -22
-5 -17 4 -73 -36 -76 -54 -10 -59 -71 -130 -119 -139 -10 -2 -18 -4 -18 -5 0
-11 -121 -19 -136 -9 -8 5 -9 9 -3 9 15 0 13 41 -3 57 -9 10 -17 10 -40 -1
-29 -14 -54 -25 -163 -71 -36 -15 -79 -33 -95 -40 -52 -23 -90 -37 -95 -33 -3
2 -5 120 -5 263 0 239 -1 260 -18 263 -9 2 -17 -1 -17 -6 0 -5 -8 -9 -17 -9
-16 0 -148 -56 -196 -83 -10 -6 -23 -8 -29 -4 -7 4 -8 3 -4 -4 4 -7 2 -12 -5
-12 -15 0 -143 -62 -147 -72 -2 -4 -9 -5 -16 -2 -8 3 -16 -2 -20 -11 -3 -9
-10 -14 -14 -11 -5 3 -19 -4 -30 -15 -20 -18 -22 -18 -22 -2 0 10 11 30 25 45
14 15 25 30 25 33 0 3 8 13 18 23 35 37 72 82 67 82 -5 0 19 31 48 62 9 10 16
20 15 22 -2 3 6 15 17 28 11 13 21 25 21 28 1 9 38 65 49 72 5 4 6 8 1 8 -5 0
-2 7 5 16 17 21 27 39 85 154 27 52 51 97 54 100 3 3 6 12 8 20 2 8 10 31 19
50 10 19 18 44 20 55 2 10 8 22 14 25 5 4 9 11 8 16 -2 9 6 34 22 69 6 12 12
30 14 40 2 11 4 21 5 23 2 1 4 7 5 12 1 6 4 12 5 15 1 3 3 8 4 13 1 4 8 25 14
46 6 22 9 42 7 45 -3 2 -1 9 4 15 6 7 12 23 15 36 16 80 20 96 30 102 8 5 7 8
-1 8 -9 0 -9 9 1 38 7 20 12 46 10 56 -1 11 0 25 4 30 4 6 8 27 9 46 1 19 4
49 7 65 24 121 25 548 1 668 -6 31 9 36 41 12 10 -8 27 -15 37 -15 9 0 17 -3
17 -7 0 -19 210 -21 280 -3 25 7 50 13 55 15 6 1 13 3 18 4 4 0 23 8 43 16 20
8 40 12 45 9 5 -3 9 -1 9 4 0 7 76 35 133 48 47 11 137 13 137 4 0 -6 6 -10
14 -10 20 0 67 -50 83 -89 8 -18 16 -31 19 -29 2 3 6 59 8 124 3 109 -2 168
-18 249 -10 48 -67 156 -97 186 -15 15 -25 30 -22 33 4 3 -1 6 -9 6 -9 0 -18
4 -20 9 -6 15 -88 62 -98 56 -6 -4 -10 -2 -10 3 0 9 -47 27 -62 24 -5 -1 -8 2
-8 8 0 5 -7 7 -15 4 -8 -3 -20 -2 -27 2 -7 4 -31 10 -53 13 -61 8 -293 5 -350
-3 -27 -5 -60 -9 -72 -10 -13 0 -23 -5 -23 -9 0 -5 -8 -7 -17 -6 -17 2 -30 -1
-80 -22 -18 -6 -23 -5 -23 6 0 8 6 15 14 15 8 0 28 11 44 25 17 14 35 25 41
25 5 0 15 9 21 21 7 11 14 18 17 15 3 -3 11 0 18 7 7 7 30 26 51 42 80 64 250
225 238 225 -3 0 5 10 18 23 56 53 182 243 172 259 -3 4 -1 8 4 8 9 0 59 121
67 161 11 53 18 99 20 134 2 22 4 42 5 45 1 3 1 10 0 15 -1 6 -3 35 -5 65 -2
30 -10 82 -19 115 -9 33 -19 67 -21 75 -5 21 -49 106 -65 125 -7 8 -9 15 -6
15 4 0 1 7 -8 15 -15 16 -37 20 -34 8 3 -12 -13 -107 -20 -118 -4 -5 -7 -16
-8 -23 -8 -47 -119 -224 -149 -236 -9 -3 -13 -10 -10 -16 3 -5 1 -10 -5 -10
-6 0 -24 -13 -40 -30 -16 -16 -34 -30 -40 -30 -6 0 -8 -4 -5 -10 3 -5 2 -10
-3 -10 -22 0 -258 -227 -248 -237 3 -3 -6 -17 -20 -31 -23 -26 -27 -35 -21
-48 1 -3 -6 -10 -15 -15 -10 -6 -18 -16 -18 -23 0 -8 -11 -38 -24 -67 -13 -30
-24 -58 -24 -64 -1 -5 -6 -30 -11 -55 -11 -44 -18 -80 -26 -130 -3 -14 -6 -50
-8 -80 -3 -35 -9 -56 -18 -58 -8 -3 -11 -1 -6 3 4 5 0 19 -8 32 -9 13 -13 28
-10 32 3 5 1 11 -3 13 -5 1 -22 30 -39 63 -51 99 -78 150 -83 155 -3 3 -14 21
-24 40 -11 19 -26 41 -33 48 -7 7 -13 19 -13 27 0 7 -7 16 -16 19 -8 3 -12 10
-9 16 3 6 -1 13 -9 16 -9 3 -14 10 -11 14 3 4 -2 10 -10 14 -8 3 -15 12 -15
21 0 8 -7 15 -16 15 -8 0 -13 4 -10 8 3 5 -6 20 -20 35 -13 14 -24 29 -24 32
0 3 -10 16 -22 29 -52 54 -153 168 -156 177 -2 5 -8 9 -12 9 -5 0 -26 17 -47
38 -38 37 -98 89 -183 156 -25 20 -51 41 -57 46 -7 6 -13 7 -13 3 0 -4 -4 -3
-8 3 -6 9 -37 31 -117 82 -11 7 -32 17 -47 23 -16 6 -28 15 -28 20 0 5 -9 9
-20 9 -11 0 -20 4 -20 8 0 5 -16 14 -35 22 -19 8 -35 17 -35 20 0 4 -6 7 -12
8 -7 0 -56 19 -108 41 -52 22 -103 41 -112 41 -10 0 -18 4 -18 8 0 5 -6 9 -12
9 -7 0 -48 10 -91 22 -43 12 -89 22 -103 23 -13 1 -24 5 -24 9 0 4 -10 7 -22
7 -22 1 -55 5 -116 17 -15 3 -79 8 -142 11 -63 3 -118 8 -121 10 -3 2 -8 2
-10 0z m361 -1432 c61 -1 145 -15 148 -25 2 -5 8 -7 13 -3 5 3 41 -12 80 -33
90 -48 168 -132 202 -216 42 -104 43 -108 50 -177 2 -20 6 -41 10 -47 4 -6 3
-15 -3 -18 -7 -4 -7 -12 -2 -18 7 -10 9 -72 2 -79 -1 -2 -3 -25 -5 -53 -4 -60
-11 -110 -25 -167 -6 -24 -13 -54 -16 -67 -3 -14 -7 -28 -10 -33 -3 -5 -7 -19
-10 -32 -2 -13 -12 -41 -21 -62 -9 -22 -16 -42 -15 -46 1 -5 -3 -8 -9 -8 -6 0
-9 -7 -6 -15 4 -8 2 -17 -2 -20 -5 -3 -19 -24 -31 -47 -30 -58 -85 -142 -104
-157 -9 -7 -13 -17 -10 -22 3 -5 -3 -9 -12 -9 -10 0 -15 -3 -12 -6 12 -11
-184 -184 -209 -184 -4 0 -20 -10 -33 -22 -14 -13 -32 -24 -40 -26 -8 -2 -16
-8 -18 -13 -2 -5 -7 -9 -12 -9 -5 0 -37 -13 -72 -29 -77 -35 -112 -47 -144
-50 -8 0 -13 -5 -10 -10 4 -5 -1 -8 -10 -7 -10 2 -34 -3 -55 -10 -21 -8 -52
-16 -70 -19 -18 -3 -36 -8 -41 -11 -8 -5 -43 -11 -118 -19 -14 -2 -25 -4 -25
-5 0 -3 -71 -11 -117 -13 -27 -1 -48 -4 -48 -7 0 -3 -40 -5 -90 -5 -49 0 -90
-2 -90 -6 0 -3 -12 -4 -27 -2 -50 5 -313 8 -313 3 0 -3 -15 -6 -34 -7 -18 -1
-59 -9 -91 -18 -32 -10 -63 -18 -69 -19 -6 -1 -32 -12 -59 -24 -26 -11 -50
-21 -52 -22 -3 0 -38 -20 -77 -43 -40 -24 -81 -46 -90 -50 -10 -3 -18 -11 -18
-17 0 -6 -4 -9 -9 -6 -5 3 -20 -3 -34 -14 -14 -11 -32 -20 -41 -20 -9 0 -16
-4 -16 -9 0 -5 -8 -11 -17 -14 -10 -3 -53 -19 -95 -35 -43 -17 -78 -28 -78
-25 0 3 -6 1 -12 -4 -13 -10 -17 -11 -73 -13 -42 -1 -58 3 -91 25 -58 37 -164
161 -164 192 0 6 -4 13 -8 15 -9 3 -65 119 -76 156 -4 12 -11 22 -16 22 -4 0
-6 9 -3 20 3 12 0 20 -7 20 -7 0 -10 7 -7 15 4 8 2 17 -4 20 -5 4 -7 11 -4 16
4 5 1 9 -4 9 -6 0 -10 3 -9 8 1 4 -4 32 -10 62 -7 30 -13 65 -15 77 -2 12 -6
26 -10 29 -4 4 -1 14 6 22 8 11 8 14 0 9 -8 -5 -11 15 -11 73 0 80 21 179 39
181 14 2 22 5 52 17 44 18 158 15 186 -5 14 -9 21 -11 17 -5 -4 6 17 -1 46
-16 58 -30 58 -30 148 -103 59 -48 81 -66 138 -119 30 -27 133 -94 174 -113
64 -30 124 -37 156 -18 56 32 50 25 185 191 7 8 11 18 9 22 -1 5 2 8 6 8 5 0
24 24 42 53 19 28 38 54 42 55 4 2 8 10 8 18 0 8 3 14 8 14 6 0 39 51 43 68 1
4 10 13 21 20 10 7 16 17 13 22 -3 4 -2 10 3 12 4 1 25 30 47 63 21 33 46 65
54 72 9 7 13 13 9 13 -4 0 -1 8 7 18 8 9 37 49 65 87 61 84 86 117 123 163 15
19 27 39 27 44 0 5 5 6 10 3 6 -3 10 0 10 7 0 7 9 19 21 26 12 7 19 16 16 18
-9 10 242 254 335 327 86 66 308 183 322 170 3 -4 6 -1 6 5 0 6 9 9 20 7 11
-2 20 0 20 5 0 9 77 25 123 24 15 0 27 4 27 10 0 7 3 8 8 1 4 -6 23 -11 42
-11z m-2328 -2375 c10 0 20 -4 23 -8 2 -5 16 -7 30 -6 14 2 25 -2 25 -8 0 -5
3 -8 6 -4 3 3 25 -1 47 -10 23 -8 47 -16 52 -17 32 -6 35 -18 32 -137 -1 -65
2 -119 6 -119 5 0 5 -5 1 -12 -4 -7 -7 -29 -7 -50 0 -21 -2 -38 -6 -38 -3 0
-17 18 -31 40 -14 22 -27 40 -30 40 -3 0 -14 17 -25 38 -20 37 -29 51 -52 76
-7 8 -9 16 -6 20 4 3 2 6 -3 6 -6 0 -18 17 -27 38 -24 51 -41 72 -65 77 -27 5
-85 35 -94 49 -4 6 -8 7 -8 2 0 -10 -30 13 -30 24 0 4 33 6 73 3 39 -2 80 -5
89 -4z"/>
<path d="M2450 4303 c0 -5 -16 -8 -37 -7 -20 1 -43 -1 -52 -6 -9 -4 -33 -16
-54 -26 -32 -16 -156 -124 -142 -124 3 0 -3 -9 -12 -19 -35 -38 -42 -49 -36
-55 4 -3 1 -6 -5 -6 -6 0 -19 -14 -27 -30 -9 -17 -24 -40 -33 -51 -9 -11 -16
-22 -14 -25 2 -3 -6 -14 -18 -24 -12 -10 -20 -20 -19 -22 4 -5 -51 -88 -72
-112 -11 -11 -19 -25 -19 -32 0 -7 -4 -14 -8 -16 -5 -1 -19 -19 -33 -39 -28
-42 -83 -110 -121 -152 -16 -17 -28 -34 -28 -39 0 -5 -4 -6 -10 -3 -5 3 -10 1
-10 -4 0 -10 -65 -74 -152 -151 -51 -46 -56 -49 -62 -44 -3 2 -4 1 -1 -3 3 -3
-3 -12 -13 -20 -15 -12 -14 -13 8 -2 14 7 27 15 30 18 3 3 37 22 75 41 39 19
87 45 108 58 35 21 37 21 37 4 0 -40 73 -126 118 -138 12 -3 22 -9 22 -13 0
-8 33 -11 107 -12 50 -1 117 29 162 71 17 17 28 30 26 30 -3 0 3 9 13 20 42
45 65 111 68 193 3 71 -17 127 -44 127 -7 0 -10 5 -7 10 3 6 -3 10 -14 10 -11
0 -23 5 -26 10 -3 6 -1 10 4 10 6 0 11 7 11 15 0 8 9 19 21 25 11 7 19 14 16
16 -5 6 135 153 143 151 3 -1 19 10 35 25 16 15 32 25 37 22 4 -3 8 -1 8 3 0
9 59 47 72 48 3 0 10 4 15 8 7 8 66 36 88 43 6 2 39 12 74 23 35 11 68 18 73
15 4 -3 8 -1 8 4 0 5 18 8 41 8 22 -1 43 2 46 7 2 4 9 4 15 1 7 -4 8 -2 4 5
-4 6 -12 9 -17 6 -5 -4 -9 -2 -9 3 0 12 -136 83 -144 75 -3 -3 -6 -2 -6 4 0 5
-19 16 -42 23 -24 8 -47 16 -53 19 -11 6 -25 9 -75 16 -19 3 -43 8 -52 11 -10
3 -18 2 -18 -3z"/>
<path d="M460 3563 c-33 -12 -64 -64 -74 -126 -3 -20 1 -30 16 -38 16 -9 19
-8 12 3 -6 10 -5 11 7 2 8 -6 21 -11 29 -11 27 0 120 -25 126 -34 3 -5 9 -7
14 -4 9 6 97 -31 105 -45 4 -6 11 -8 16 -5 17 11 41 -23 30 -43 -18 -34 -20
-104 -4 -144 16 -40 76 -88 114 -91 10 -1 19 -5 19 -9 0 -13 95 27 116 49 44
45 82 113 76 136 -1 4 5 7 14 7 8 0 12 5 9 10 -4 6 -3 10 2 9 4 -1 21 -1 37 0
40 1 27 12 -64 51 -41 18 -86 40 -99 49 -13 8 -31 16 -39 17 -8 2 -18 7 -21
12 -3 5 -23 15 -43 23 -21 7 -38 17 -38 22 0 4 -13 13 -30 18 -16 6 -30 15
-30 21 0 5 -4 7 -9 4 -5 -3 -12 1 -15 10 -4 9 -9 14 -12 11 -5 -5 -61 28 -91
53 -7 6 -13 8 -13 5 0 -3 -10 0 -22 7 -13 7 -26 13 -30 14 -5 1 -9 2 -10 4 -2
1 -12 3 -22 5 -11 2 -29 6 -40 8 -12 3 -28 3 -36 0z"/>
<path d="M4858 2504 c-4 -4 -29 -7 -55 -8 l-48 -1 0 -152 c0 -84 3 -153 7
-153 4 0 20 5 35 11 15 6 37 15 48 20 28 11 148 51 160 53 6 1 15 4 20 7 6 3
17 5 25 4 8 0 17 3 20 7 3 3 19 9 35 12 17 2 31 5 33 6 1 2 7 4 12 5 6 1 11 3
13 5 1 1 10 3 21 5 10 2 39 8 65 14 25 6 57 13 71 15 14 3 25 5 25 6 0 3 42
10 77 12 21 2 38 5 38 8 0 3 21 7 48 8 47 4 93 9 102 11 5 2 -50 35 -60 36 -3
0 -15 6 -26 13 -12 6 -24 8 -28 5 -3 -3 -6 -1 -6 6 0 7 -5 9 -10 6 -6 -4 -16
-3 -23 2 -7 5 -23 9 -37 9 -14 -1 -28 2 -31 7 -3 4 -40 8 -82 10 -42 1 -77 6
-77 11 0 5 -6 4 -12 -1 -11 -7 -121 -10 -153 -3 -5 1 -12 1 -15 0 -16 -7 -60
-5 -60 2 0 5 -5 6 -11 3 -16 -10 -108 -12 -112 -2 -1 5 -6 5 -9 1z"/>
<path d="M6034 2494 c-5 -11 -8 -28 -8 -39 1 -11 2 -30 3 -42 1 -19 7 -23 37
-23 19 0 33 -3 31 -7 -3 -5 9 -9 26 -9 29 -1 82 -10 82 -14 0 -1 6 -3 45 -13
59 -15 77 -21 88 -30 6 -5 12 -6 12 -3 0 4 12 1 28 -7 15 -8 59 -30 97 -48 39
-18 72 -37 73 -41 2 -4 9 -8 16 -8 7 0 21 -8 32 -18 10 -10 34 -27 52 -37 17
-11 32 -23 32 -28 0 -4 4 -6 9 -2 5 3 12 -4 16 -15 4 -11 11 -17 17 -14 6 4 5
-3 -2 -16 -9 -17 -9 -21 0 -15 9 6 9 3 1 -12 -7 -14 -7 -23 1 -31 9 -9 9 -12
0 -12 -9 0 -10 -5 -3 -19 6 -10 8 -21 4 -24 -10 -10 18 -37 38 -37 11 0 19 -5
19 -12 0 -6 3 -8 6 -5 4 3 16 0 28 -8 11 -8 28 -15 38 -15 10 0 18 -4 18 -9 0
-5 16 -15 35 -22 19 -7 35 -17 35 -23 0 -5 3 -7 6 -3 4 3 -9 25 -27 49 -19 24
-41 51 -49 62 -8 10 -39 43 -67 72 -29 29 -53 57 -53 62 0 4 56 8 125 8 l124
-1 1 201 c0 157 -3 204 -13 213 -8 6 -17 8 -21 4 -10 -11 -56 -11 -56 -1 0 5
-5 6 -11 2 -11 -6 -130 -9 -154 -4 -5 1 -12 1 -15 0 -16 -7 -60 -5 -60 2 0 5
-5 6 -11 3 -16 -10 -109 -12 -109 -2 0 4 -5 5 -11 2 -18 -12 -169 -12 -169 0
0 5 -4 4 -9 -3 -4 -8 -12 -14 -16 -14 -4 0 -12 6 -16 14 -5 7 -9 8 -9 2 0 -14
-30 -14 -30 0 0 7 -3 7 -8 1 -11 -15 -32 -17 -32 -2 0 9 -2 9 -9 -1 -4 -8 -12
-14 -16 -14 -4 0 -12 6 -16 14 -5 7 -9 8 -9 2 0 -14 -30 -14 -30 0 0 6 -4 5
-9 -2 -4 -8 -12 -14 -16 -14 -4 0 -12 6 -16 14 -5 7 -9 8 -9 2 0 -14 -30 -14
-30 0 0 6 -4 5 -9 -2 -10 -17 -21 -17 -31 -2 -6 9 -10 7 -16 -6z"/>
<path d="M5646 2400 l-29 -5 27 -15 c60 -32 176 -189 176 -238 0 -7 4 -12 10
-12 5 0 7 -7 4 -15 -4 -8 0 -23 7 -32 12 -14 12 -16 -1 -8 -12 7 -13 6 -4 -6
6 -8 10 -22 9 -31 -3 -15 3 -17 33 -12 70 10 82 13 92 19 5 3 10 1 10 -5 0 -6
5 -8 10 -5 20 12 95 17 233 16 70 -1 87 -4 87 -16 0 -8 -6 -15 -12 -15 -8 0
-9 -3 -3 -8 14 -10 14 -162 1 -162 -8 0 -8 -3 -1 -8 14 -10 14 -472 0 -472 -6
0 -6 -3 0 -8 15 -10 15 -464 0 -474 -7 -5 -6 -8 1 -8 7 0 10 -29 9 -86 -1 -75
1 -86 18 -96 15 -7 22 -7 28 3 6 9 12 10 17 4 9 -14 95 -13 104 0 5 7 8 7 8 0
0 -12 70 -15 70 -3 0 5 8 5 18 1 21 -10 53 -10 70 0 6 5 12 4 12 0 0 -5 9 -9
20 -10 11 -1 20 3 20 9 0 6 7 5 18 -3 9 -7 14 -10 10 -5 -4 5 -3 17 3 27 6 12
6 19 0 19 -9 0 -7 38 3 48 3 2 1 13 -5 23 -7 14 -6 19 3 19 10 0 10 2 1 8 -8
5 -9 13 -3 22 5 8 5 21 -1 32 -6 12 -6 18 0 18 7 0 7 9 1 25 -7 17 -6 25 1 25
8 0 8 4 0 13 -8 10 -7 17 1 25 7 7 8 12 2 12 -5 0 -10 9 -10 20 0 11 4 20 9
20 5 0 5 6 -2 13 -8 10 -7 17 1 25 7 7 8 12 2 12 -12 0 -12 29 0 48 4 6 3 12
-1 12 -5 0 -9 9 -9 20 0 11 4 20 9 20 5 0 5 6 -2 13 -8 10 -7 17 1 25 7 7 8
12 2 12 -5 0 -10 9 -10 20 0 11 4 20 9 20 5 0 5 6 -2 13 -8 10 -7 17 1 25 7 7
8 12 2 12 -12 0 -12 29 0 48 4 6 3 12 -1 12 -5 0 -9 9 -9 20 0 11 4 20 9 20 4
0 5 6 1 12 -12 19 -12 48 -1 48 5 0 4 6 -2 14 -9 11 -9 16 0 21 8 6 8 9 -1 15
-9 5 -9 13 -2 26 7 13 7 26 1 37 -7 12 -6 17 3 17 10 0 10 2 1 8 -8 5 -9 13
-3 22 5 8 5 21 -1 32 -7 13 -6 18 3 18 10 0 10 2 1 8 -8 5 -9 13 -3 22 5 8 5
21 -1 32 -7 13 -6 18 3 18 10 0 10 2 1 8 -8 5 -9 13 -3 22 5 8 5 21 -1 32 -5
10 -6 18 -1 18 5 0 9 7 9 15 0 8 -5 15 -10 15 -5 0 -4 7 3 15 9 11 9 15 1 15
-7 0 -10 4 -7 9 7 10 -16 22 -54 28 -13 2 -27 7 -30 11 -3 4 -11 8 -19 10 -8
2 -40 10 -70 18 -31 9 -65 17 -77 18 -11 2 -27 7 -34 11 -9 6 -11 4 -5 -4 6
-10 3 -11 -11 -3 -11 5 -29 8 -42 7 -13 -1 -25 2 -28 7 -3 4 -10 6 -15 3 -5
-4 -14 5 -20 18 -11 24 -14 24 -132 25 -67 0 -129 0 -137 1 -13 1 -15 25 -15
153 l0 151 -25 4 c-46 6 -324 9 -354 3z"/>
<path d="M5169 2147 c-1 -1 -2 -13 -3 -27 -1 -14 -5 -31 -9 -37 -5 -7 -4 -13
1 -13 11 0 10 -40 -1 -57 -5 -7 -4 -13 0 -13 10 0 10 -61 -1 -78 -4 -7 -3 -12
2 -12 5 0 8 -22 7 -50 -1 -27 2 -50 6 -50 5 0 9 4 9 8 0 5 6 9 13 9 21 1 42 8
48 16 3 4 16 10 30 12 13 3 25 9 27 15 2 6 7 8 11 6 4 -3 25 1 47 9 89 31 96
35 86 48 -5 6 -13 31 -17 55 -4 23 -13 49 -22 57 -8 8 -12 15 -8 15 19 0 -61
60 -87 66 -5 1 -9 2 -10 4 -7 5 -127 21 -129 17z"/>
<path d="M3832 2068 c0 -7 -3 -31 -7 -53 -8 -51 -15 -103 -31 -215 -3 -25 -9
-47 -13 -50 -3 -3 -6 -18 -5 -35 0 -16 -2 -34 -5 -40 -3 -5 -6 -21 -7 -35 -1
-14 -3 -27 -4 -30 -2 -3 -4 -9 -5 -15 -2 -17 -15 -79 -21 -105 -3 -14 -6 -35
-7 -47 -1 -13 -4 -23 -7 -23 -3 0 -7 -12 -8 -27 -2 -16 -4 -37 -5 -48 -2 -19
4 -20 118 -22 66 -1 125 -2 130 -3 10 -1 -31 -22 -50 -25 -5 0 -18 -4 -27 -8
-30 -12 -53 -20 -60 -22 -5 -2 -9 -3 -10 -5 -4 -2 -41 -11 -55 -12 -7 -1 -13
-6 -13 -11 0 -6 -3 -8 -6 -5 -5 5 -88 -18 -144 -39 -8 -4 -22 -7 -30 -7 -8 0
-17 -4 -20 -8 -3 -3 -19 -9 -35 -12 -17 -2 -30 -5 -30 -6 0 -1 -11 -4 -25 -7
-38 -7 -55 -11 -57 -13 -2 -2 -6 -3 -10 -4 -139 -29 -141 -30 -148 -66 -2 -11
-18 -73 -35 -137 -18 -65 -34 -128 -36 -140 -2 -12 -9 -34 -14 -48 -6 -15 -10
-33 -10 -42 0 -13 3 -13 15 -3 8 7 15 8 15 4 0 -5 23 -9 50 -9 28 0 50 4 50
10 0 7 3 7 8 0 9 -13 72 -16 72 -4 0 6 8 6 18 2 21 -10 53 -10 70 0 6 5 12 4
12 0 0 -11 97 -10 107 2 4 4 1 5 -7 1 -13 -7 -13 -6 0 6 15 13 17 22 22 80 2
16 6 28 9 28 3 0 11 28 18 63 13 69 18 91 21 95 2 1 3 8 4 15 1 6 8 10 16 8
31 -7 55 -7 68 2 7 6 12 6 12 0 0 -12 83 -11 92 2 5 6 8 6 8 0 0 -11 80 -13
98 -1 7 4 12 3 12 -1 0 -5 27 -8 60 -8 63 2 71 -3 76 -39 2 -12 5 -30 8 -41
12 -42 37 -161 39 -177 1 -10 5 -18 10 -18 4 0 6 -4 3 -9 -3 -5 3 -11 14 -14
11 -3 20 0 20 6 0 8 3 8 8 2 9 -14 95 -13 105 0 4 6 10 5 16 -3 4 -8 12 -14
16 -14 4 0 12 6 16 14 5 7 9 8 9 2 0 -13 92 -13 103 1 4 6 10 5 16 -3 11 -17
21 -17 32 0 5 7 9 8 9 2 0 -6 13 -10 29 -10 27 0 28 2 20 28 -4 15 -6 28 -4
28 2 0 -4 24 -14 53 -9 28 -17 59 -16 67 0 8 -2 17 -5 20 -5 4 -26 79 -35 122
-4 18 -35 137 -45 173 -2 6 -7 24 -11 40 -17 70 -40 151 -46 165 -7 17 -9 28
-11 53 -2 20 -32 23 -50 5 -7 -7 -12 -8 -12 -4 0 5 -7 3 -15 -4 -8 -7 -15 -9
-15 -4 0 5 -4 4 -8 -2 -4 -5 -36 -21 -72 -34 -36 -13 -71 -28 -77 -33 -7 -5
-13 -7 -13 -4 0 3 -12 0 -27 -8 -15 -8 -30 -12 -35 -9 -4 3 -8 1 -8 -4 0 -5
-9 -12 -20 -15 -16 -4 -22 2 -30 35 -6 21 -13 51 -15 66 -3 15 -11 52 -18 82
-8 30 -13 63 -11 73 1 9 -1 17 -5 17 -4 0 -8 12 -9 28 -1 15 -5 38 -8 52 -3
14 -8 41 -10 60 -8 51 -12 75 -14 75 -3 0 -14 91 -14 127 -1 20 -4 34 -8 31
-5 -2 -9 14 -9 36 -2 52 -3 58 -10 65 -3 3 -6 0 -7 -6z"/>
<path d="M2119 1737 c-1 -9 -3 -21 -4 -27 -1 -5 -3 -24 -4 -41 0 -16 -4 -28
-9 -25 -4 2 -6 -13 -5 -35 1 -21 -1 -39 -5 -39 -4 0 -7 -15 -7 -32 0 -18 -3
-40 -7 -49 -4 -9 -10 -31 -13 -50 -3 -19 -10 -49 -15 -68 -5 -19 -7 -38 -4
-43 3 -4 1 -8 -4 -8 -5 0 -8 -10 -8 -22 1 -13 -1 -27 -5 -33 -4 -5 -7 -13 -7
-18 -1 -4 -6 -33 -13 -65 -7 -31 -13 -65 -12 -75 0 -9 -4 -17 -9 -17 -5 0 -8
-8 -6 -17 4 -25 -48 -22 -207 12 -11 2 -34 6 -52 9 -18 2 -37 7 -42 10 -5 3
-26 8 -47 12 -22 3 -47 10 -56 15 -9 5 -21 8 -25 8 -4 -1 -15 0 -23 3 -64 22
-92 29 -97 24 -4 -3 -1 -23 5 -43 6 -20 9 -40 6 -45 -3 -4 -1 -8 4 -8 5 0 9
-6 9 -12 0 -7 4 -29 7 -48 6 -31 12 -53 34 -120 2 -8 6 -26 8 -40 1 -14 6 -36
9 -50 4 -14 9 -38 12 -55 7 -38 30 -62 45 -47 8 8 17 8 31 0 15 -7 22 -7 28 3
6 9 12 10 17 4 9 -13 175 -13 184 0 5 7 8 6 8 0 0 -9 24 -11 61 -6 3 1 6 7 7
14 0 6 3 21 5 32 19 71 34 155 29 160 -3 3 0 5 5 5 6 0 10 11 8 25 -1 14 1 25
5 25 4 0 7 6 8 13 5 66 9 72 43 72 19 0 38 -2 43 -4 6 -3 28 -6 50 -7 23 -2
70 -5 104 -7 l64 -4 -5 31 c-14 83 -25 141 -27 141 -2 0 -9 33 -14 65 -4 30
-16 79 -23 100 -7 19 -14 65 -16 107 -1 17 -5 29 -9 26 -5 -2 -8 6 -9 19 0 13
-2 32 -5 43 -2 11 -6 31 -8 45 -2 14 -5 25 -6 25 -1 0 -3 15 -6 34 -10 78 -22
116 -25 78z"/>
</g>
</svg>
