<?xml version="1.0" encoding="UTF-8" standalone="no"?>
<svg
   xmlns:dc="http://purl.org/dc/elements/1.1/"
   xmlns:cc="http://creativecommons.org/ns#"
   xmlns:rdf="http://www.w3.org/1999/02/22-rdf-syntax-ns#"
   xmlns:svg="http://www.w3.org/2000/svg"
   xmlns="http://www.w3.org/2000/svg"
   id="svg8"
   version="1.1"
   viewBox="0 0 147.6375 50.241692"
   height="189.88986"
   width="558">
  <defs
     id="defs2" />
  <metadata
     id="metadata5">
    <rdf:RDF>
      <cc:Work
         rdf:about="">
        <dc:format>image/svg+xml</dc:format>
        <dc:type
           rdf:resource="http://purl.org/dc/dcmitype/StillImage" />
        <dc:title></dc:title>
      </cc:Work>
    </rdf:RDF>
  </metadata>
  <g
     transform="translate(-75.502761,-99.660457)"
     style="display:inline"
     id="layer3">
    <g
       style="fill:#272727;fill-opacity:1"
       id="g122"
       transform="matrix(1.0551229,0,0,1.0551229,-4.1619263,-5.1580652)">
      <g
         aria-label="NINJA"
         style="font-style:normal;font-variant:normal;font-weight:normal;font-stretch:normal;font-size:4.8287px;line-height:1.25;font-family:'Dank Mono';-inkscape-font-specification:'Dank Mono, Normal';font-variant-ligatures:normal;font-variant-caps:normal;font-variant-numeric:normal;font-feature-settings:normal;text-align:start;letter-spacing:0px;word-spacing:0px;writing-mode:lr-tb;text-anchor:start;display:inline;fill:#272727;fill-opacity:1;stroke:none;stroke-width:0.120717"
         id="text843"
         transform="matrix(3.7632926,0,0,3.7632926,62.728234,92.12337)">
        <path
           d="m 33.535623,12.875566 h -0.226345 l -0.985545,-2.713784 v 2.713784 H 32.014866 V 9.1856686 h 0.245208 l 0.966682,2.6666284 V 9.1856686 h 0.308867 z"
           style="font-style:normal;font-variant:normal;font-weight:normal;font-stretch:normal;font-family:'Agency FB';-inkscape-font-specification:'Agency FB';fill:#272727;fill-opacity:1;stroke-width:0.120717"
           id="path880" />
        <path
           d="M 34.474012,12.875566 H 34.146283 V 9.1856686 h 0.327729 z"
           style="font-style:normal;font-variant:normal;font-weight:normal;font-stretch:normal;font-family:'Agency FB';-inkscape-font-specification:'Agency FB';fill:#272727;fill-opacity:1;stroke-width:0.120717"
           id="path882" />
        <path
           d="m 36.610144,12.875566 h -0.226345 l -0.985545,-2.713784 v 2.713784 H 35.089387 V 9.1856686 h 0.245208 l 0.966682,2.6666284 V 9.1856686 h 0.308867 z"
           style="font-style:normal;font-variant:normal;font-weight:normal;font-stretch:normal;font-family:'Agency FB';-inkscape-font-specification:'Agency FB';fill:#272727;fill-opacity:1;stroke-width:0.120717"
           id="path884" />
        <path
           d="m 38.501069,12.613854 q 0,0.11553 -0.07309,0.188621 -0.07309,0.07309 -0.188621,0.07309 h -0.858225 q -0.11553,0 -0.188621,-0.07309 -0.07309,-0.07309 -0.07309,-0.188621 v -0.936031 h 0.327729 v 0.907738 H 38.17334 V 9.1856686 h 0.327729 z"
           style="font-style:normal;font-variant:normal;font-weight:normal;font-stretch:normal;font-family:'Agency FB';-inkscape-font-specification:'Agency FB';fill:#272727;fill-opacity:1;stroke-width:0.120717"
           id="path886" />
        <path
           d="m 40.575899,12.875566 h -0.325372 l -0.129676,-0.820502 h -0.733264 l -0.129677,0.820502 h -0.31594 v -0.0094 l 0.657815,-3.6898964 h 0.323014 z M 40.078411,11.76506 39.755398,9.765678 39.430026,11.76506 Z"
           style="font-style:normal;font-variant:normal;font-weight:normal;font-stretch:normal;font-family:'Agency FB';-inkscape-font-specification:'Agency FB';fill:#272727;fill-opacity:1;stroke-width:0.120717"
           id="path888" />
      </g>
      <g
         aria-label="SWART"
         style="font-style:normal;font-variant:normal;font-weight:normal;font-stretch:normal;font-size:10.8021px;line-height:1.25;font-family:'Dank Mono';-inkscape-font-specification:'Dank Mono, Normal';font-variant-ligatures:normal;font-variant-caps:normal;font-variant-numeric:normal;font-feature-settings:normal;text-align:start;letter-spacing:0px;word-spacing:0px;writing-mode:lr-tb;text-anchor:start;display:inline;fill:#272727;fill-opacity:1;stroke:none;stroke-width:0.270052;stroke-opacity:1"
         id="text826"
         transform="matrix(3.3039225,0,0,3.3039225,-151.66606,-583.77459)">
        <path
           d="m 83.960713,214.70986 v -1.64036 q 0.759522,0.44306 1.276418,0.44306 0.300644,0 0.474701,-0.16351 0.174057,-0.16878 0.174057,-0.44305 0,-0.21098 -0.142411,-0.39559 -0.137135,-0.1846 -0.479975,-0.44833 -0.828089,-0.63293 -1.202575,-1.1762 -0.369212,-0.54854 -0.369212,-1.2184 0,-0.91248 0.574916,-1.48739 0.574915,-0.57492 1.487395,-0.57492 0.67513,0 1.339711,0.2901 v 1.57706 q -0.712051,-0.39031 -1.155105,-0.39031 -0.295369,0 -0.469426,0.14768 -0.168783,0.14241 -0.168783,0.39559 0,0.44305 0.796443,0.99687 0.474701,0.32701 0.95995,0.92303 0.490524,0.59074 0.490524,1.37136 0,0.91248 -0.638209,1.51376 -0.638208,0.59602 -1.619256,0.59602 -0.669856,0 -1.329163,-0.31647 z"
           style="font-style:normal;font-variant:normal;font-weight:normal;font-stretch:normal;font-family:'Tw Cen MT Condensed Extra Bold';-inkscape-font-specification:'Tw Cen MT Condensed Extra Bold, ';fill:#272727;fill-opacity:1;stroke:none;stroke-width:0.270052;stroke-opacity:1"
           id="path830" />
        <path
           d="m 88.037865,207.80033 h 1.534866 l 0.907206,4.24593 h 0.0211 l 0.822814,-4.24593 h 1.392456 l 0.833364,4.19846 h 0.0211 l 0.865011,-4.19846 h 1.577061 l -1.687825,7.04139 h -1.4452 l -0.669855,-3.14885 q -0.110764,-0.51689 -0.184606,-0.99687 h -0.0211 q -0.131861,0.81754 -0.18988,1.09181 l -0.664581,3.05391 H 89.72569 Z"
           style="font-style:normal;font-variant:normal;font-weight:normal;font-stretch:normal;font-family:'Tw Cen MT Condensed Extra Bold';-inkscape-font-specification:'Tw Cen MT Condensed Extra Bold, ';fill:#272727;fill-opacity:1;stroke:none;stroke-width:0.270052;stroke-opacity:1"
           id="path832" />
        <path
           d="m 101.50618,214.84172 h -1.661452 l -0.268997,-1.1762 h -1.687825 l -0.279546,1.1762 h -1.629806 l 1.867156,-7.04139 h 1.793314 z m -2.236367,-2.44207 q -0.358663,-1.57179 -0.537995,-2.99062 h -0.0211 q -0.189881,1.46103 -0.53272,2.99062 z"
           style="font-style:normal;font-variant:normal;font-weight:normal;font-stretch:normal;font-family:'Tw Cen MT Condensed Extra Bold';-inkscape-font-specification:'Tw Cen MT Condensed Extra Bold, ';fill:#272727;fill-opacity:1;stroke:none;stroke-width:0.270052;stroke-opacity:1"
           id="path834" />
        <path
           d="m 102.31581,207.80033 h 1.86188 q 1.12873,0 1.78277,0.58019 0.65403,0.58019 0.65403,1.57706 0,0.51162 -0.2479,0.99159 -0.2479,0.47471 -0.7226,0.71733 l 1.27642,3.17522 h -1.68783 l -1.29224,-3.20687 h -0.0264 v 3.20687 h -1.59816 z m 1.59816,1.3608 v 1.67201 q 1.06016,-0.0211 1.06016,-0.7437 0,-0.49053 -0.2479,-0.7015 -0.24262,-0.21098 -0.81226,-0.22681 z"
           style="font-style:normal;font-variant:normal;font-weight:normal;font-stretch:normal;font-family:'Tw Cen MT Condensed Extra Bold';-inkscape-font-specification:'Tw Cen MT Condensed Extra Bold, ';fill:#272727;fill-opacity:1;stroke:none;stroke-width:0.270052;stroke-opacity:1"
           id="path836" />
        <path
           d="m 107.29489,207.80033 h 3.81343 v 1.6087 h -1.10236 v 5.43269 h -1.61925 v -5.43269 h -1.09182 z"
           style="font-style:normal;font-variant:normal;font-weight:normal;font-stretch:normal;font-family:'Tw Cen MT Condensed Extra Bold';-inkscape-font-specification:'Tw Cen MT Condensed Extra Bold, ';fill:#272727;fill-opacity:1;stroke:none;stroke-width:0.270052;stroke-opacity:1"
           id="path838" />
      </g>
      <g
         id="g1477"
         transform="matrix(0.48588734,0,0,0.48588734,54.412185,65.058752)"
         style="fill:#272727;fill-opacity:1;stroke:none;stroke-opacity:1">
        <path
           transform="scale(0.26458333)"
           id="path1416"
           d="m 342.53125,266.67969 c -82.10915,0 -149.7104,69.45717 -158.38477,158.69726 0,0 -24.21495,2.19818 -19.47656,43.64063 11.47186,63.93815 41.48242,68 41.48242,68 21.26238,39.25958 55.69783,68.60301 96.45313,80.36328 -52.7625,4.17978 -113.31445,-29.6543 -113.31445,-29.6543 65.76347,53.3616 136.60945,49.93189 156.29101,48.90235 127.53585,-6.67117 211.1474,-109.79225 299.76367,-55.81836 -58.55516,-87.35112 -194.11718,-5.69141 -194.11718,-5.69141 31.15358,-32.52076 50.63086,-78.85163 50.63086,-130.26953 -10e-6,-8.71846 -0.56066,-17.29042 -1.64258,-25.67383 27.041,17.91326 55.93211,-21.63232 64.875,6.45899 1.16065,-12.69359 5.39028,-41.82802 -23.81836,-49.57618 -25.992,-6.14569 -48.28516,3.76758 -48.28516,3.76758 77.24353,-49.42908 50.63789,-95.35453 43.21875,-103.44336 -5.42468,44.58784 -46.45205,29.40308 -49.32226,92.95899 C 461.47069,308.68893 406.3876,266.67968 342.53125,266.67969 Z m 24.09375,99.18945 c 12.45059,0.18698 37.30706,5.15769 36.95508,41.9375 -5.74987,75.83233 -69.0211,86.01946 -125.76563,83.53125 -28.62276,3.23392 -35.196,18.77148 -60.53711,23.93359 -11.96664,2.81568 -24.87334,-20.64741 -29.80078,-40.59179 -4.92744,-19.94438 0.47071,-26.75 0.47071,-26.75 26.81412,-11.66937 38.16304,24.0813 61.94335,26.04492 17.59801,-2.81564 52.33285,-95.82831 109.8125,-107.69922 0,0 2.77168,-0.46858 6.92188,-0.40625 z"
           style="fill:#272727;fill-opacity:1;stroke:none;stroke-width:1.0259;stroke-linecap:round;stroke-miterlimit:4;stroke-dasharray:none;stroke-dashoffset:0;stroke-opacity:1;paint-order:normal" />
        <path
           id="path1428"
           d="m 50.003207,124.66408 c 0,0 0.269454,-3.11798 1.924679,-2.96401 3.19497,0.30795 3.462834,2.17068 12.510426,6.12049 l -1.578237,0.19246 c 0,0 -1.494371,4.82846 -4.657727,3.46443 -3.145647,-1.35639 -1.385771,-4.61924 -1.385771,-4.61924 -2.877604,-1.91222 -6.81337,-2.19413 -6.81337,-2.19413 z"
           style="fill:#272727;fill-opacity:1;stroke:none;stroke-width:0.264583px;stroke-linecap:butt;stroke-linejoin:miter;stroke-opacity:1" />
        <path
           id="path1430"
           d="m 69.288508,127.20466 c 14.550884,-10.2166 11.51286,-25.59979 26.714569,-16.12883 0,0 -7.651041,-0.26391 -13.395777,7.77571 3.964842,0.76987 1.154808,9.12299 -3.733882,8.73806 -3.695385,-0.38494 -4.041828,-3.31046 -4.041828,-3.31046 z"
           style="fill:#272727;fill-opacity:1;stroke:none;stroke-width:0.264583px;stroke-linecap:butt;stroke-linejoin:miter;stroke-opacity:1" />
      </g>
    </g>
  </g>
</svg>
