<?xml version="1.0" encoding="UTF-8" standalone="no"?>
<svg
   xmlns:dc="http://purl.org/dc/elements/1.1/"
   xmlns:cc="http://creativecommons.org/ns#"
   xmlns:rdf="http://www.w3.org/1999/02/22-rdf-syntax-ns#"
   xmlns:svg="http://www.w3.org/2000/svg"
   xmlns="http://www.w3.org/2000/svg"
   id="svg8"
   version="1.1"
   viewBox="0 0 147.6375 119.97741"
   height="453.45792"
   width="558">
  <defs
     id="defs2">
    <clipPath
       id="clipPath5533"
       clipPathUnits="userSpaceOnUse">
      <g
         id="use5535">
        <path
           id="path5563"
           style="font-style:normal;font-variant:normal;font-weight:normal;font-stretch:normal;font-size:192px;line-height:1.25;font-family:'Tw Cen MT Condensed Extra Bold';-inkscape-font-specification:'Tw Cen MT Condensed Extra Bold, ';letter-spacing:0px;word-spacing:0px;fill:#000000;fill-opacity:1;stroke:none;stroke-width:0.264583"
           d="m -46.262387,114.04041 h 17.933789 v 7.56543 h -5.18418 v 25.54883 h -7.615039 v -25.54883 h -5.13457 z" />
      </g>
    </clipPath>
  </defs>
  <metadata
     id="metadata5">
    <rdf:RDF>
      <cc:Work
         rdf:about="">
        <dc:format>image/svg+xml</dc:format>
        <dc:type
           rdf:resource="http://purl.org/dc/dcmitype/StillImage" />
        <dc:title></dc:title>
      </cc:Work>
    </rdf:RDF>
  </metadata>
  <g
     id="g2396"
     transform="translate(17.772889,12.479324)"
     style="display:inline">
    <g
       id="g2394"
       transform="matrix(1.1387756,0,0,1.1387756,-19.279395,-27.81588)"
       style="fill:#272727;fill-opacity:1">
      <g
         id="g2364"
         transform="matrix(1.1745209,0,0,1.1745209,113.13614,-869.22767)"
         style="display:none;fill:#272727;fill-opacity:1">
        <rect
           style="fill:#272727;fill-opacity:1;stroke:none;stroke-width:0.253815;stroke-miterlimit:2;stroke-dasharray:none;stroke-opacity:1"
           id="rect2362"
           width="112.38076"
           height="112.38076"
           x="-96.198448"
           y="740.1969" />
      </g>
      <g
         id="g2378"
         style="display:inline;fill:#272727;fill-opacity:1"
         transform="translate(176.72479,-181.55925)">
        <g
           id="g2376"
           transform="matrix(4.439134,0,0,4.439134,-374.34854,-477.96389)"
           style="display:inline;fill:#272727;fill-opacity:1">
          <path
             id="path2366"
             d="m 46.401056,163.85947 c 0,0 0.06104,-0.70625 0.435961,-0.67137 0.723697,0.0697 0.784371,0.49168 2.833755,1.38636 l -0.357489,0.0436 c 0,0 -0.338492,1.09371 -1.055029,0.78474 -0.712525,-0.30725 -0.313892,-1.04632 -0.313892,-1.04632 -0.651811,-0.43314 -1.543306,-0.497 -1.543306,-0.497 z"
             style="fill:#272727;fill-opacity:1;stroke:none;stroke-width:0.0599312px;stroke-linecap:butt;stroke-linejoin:miter;stroke-opacity:1" />
          <path
             id="path2368"
             d="m 50.769397,164.43495 c 3.295942,-2.31418 2.607795,-5.79864 6.051157,-3.65336 0,0 -1.733049,-0.0598 -3.034297,1.76128 0.898082,0.17439 0.261577,2.06646 -0.845768,1.97927 -0.837046,-0.0872 -0.91552,-0.74985 -0.91552,-0.74985 z"
             style="fill:#272727;fill-opacity:1;stroke:none;stroke-width:0.0599312px;stroke-linecap:butt;stroke-linejoin:miter;stroke-opacity:1" />
          <g
             id="g2374"
             style="font-style:normal;font-variant:normal;font-weight:normal;font-stretch:normal;font-size:96px;line-height:1.25;font-family:'Agency FB';-inkscape-font-specification:'Agency FB';letter-spacing:0px;word-spacing:0px;display:inline;fill:#272727;fill-opacity:1;stroke:none"
             transform="matrix(0.26458333,0,0,0.26458333,70.268842,-50.058116)"
             aria-label="NINJA">
            <g
               id="g2372"
               style="fill:#272727;fill-opacity:1">
              <path
                 style="display:inline;fill:#272727;fill-opacity:1;stroke:none;stroke-width:0.232378;stroke-linecap:round;stroke-miterlimit:4;stroke-dasharray:none;stroke-dashoffset:0;stroke-opacity:1;paint-order:normal"
                 d="m -55.088914,762.18775 c -18.598662,0 -33.911118,15.73285 -35.875958,35.94675 0,0 -5.484971,0.49792 -4.411671,9.88511 1.520848,8.47641 4.478926,12.30317 6.67192,14.02247 0.264536,-0.0196 0.533987,-0.031 0.810039,-0.031 1.812094,0 3.610029,0.38932 5.393804,1.16795 v 5.61235 c 2.023278,2.63896 4.344646,4.98396 6.907716,6.96655 l -3.10657,-12.96114 h 6.179513 l 3.643657,17.0534 c 0.02988,0.0139 0.05984,0.0274 0.08981,0.0412 h 0.0043 l 3.312729,-17.09454 h 5.606161 l 3.355201,16.90343 h 0.08493 l 3.482614,-16.90343 h 6.349398 l -5.518127,23.021 c 2.429059,-0.22592 4.787072,-0.59985 7.081138,-1.08699 l 5.816301,-21.93401 h 7.219613 l 2.248306,8.47826 c 6.633199,-7.31808 10.745137,-17.48656 10.745137,-28.7298 0,-1.97483 -0.127003,-3.91648 -0.372063,-5.81542 6.12509,4.05756 12.6692611,-4.89997 14.6949283,1.46304 0.2629096,-2.87525 1.2209537,-9.47452 -5.3951223,-11.22958 -5.887495,-1.39205 -10.937144,0.85341 -10.937144,0.85341 17.4965256,-11.19627 11.4700413,-21.59891 9.789522,-23.43112 -1.228752,10.09965 -10.521924,6.66014 -11.17206,21.05628 -5.756579,-13.73857 -18.233533,-23.25415 -32.697732,-23.25415 z m 25.344515,69.08733 c -0.238067,0.26265 -0.478846,0.52253 -0.723333,0.77775 0,0 0.296359,-0.17587 0.807386,-0.45965 z m 0.08407,0.3181 1.969147,7.42488 c 2.208934,-0.92139 4.366759,-1.86036 6.475931,-2.77122 v -8.56586 c -3.994395,1.53193 -7.0656,3.14614 -8.445078,3.9122 z m 8.445078,-3.9122 c 3.921207,-1.50386 8.710754,-2.9188 13.6132466,-3.34546 -1.6195048,-1.02564 -3.6584676,-1.53869 -6.1171366,-1.53869 h -7.49611 z m 13.6132466,-3.34546 c 0.3760619,0.23816 0.7296346,0.50374 1.0604507,0.79721 1.4855243,1.3178 2.3397217,3.03799 2.5681563,5.15668 2.4233716,-0.42874 4.81721646,-0.59064 7.2001458,-0.38622 v -0.62954 h -4.395738 v -4.85585 c -2.1226812,-0.26688 -4.2882971,-0.26894 -6.4330148,-0.0823 z m 6.4330148,0.0823 c 4.0129043,0.50453 7.8720864,1.95185 11.1464024,4.85584 h 4.2068302 v -6.47682 H -1.1689896 Z m 11.1464024,4.85584 H 9.7460331 v 2.17751 c 1.2494349,0.50035 2.5004289,1.1261 3.7560209,1.89086 -1.069602,-1.59562 -2.253418,-2.94091 -3.5246412,-4.06837 z m -0.2313797,2.17751 c -2.1734579,-0.87036 -4.3419667,-1.36118 -6.5192847,-1.54796 v 21.24296 h 6.5192847 z m -13.7194476,-1.16175 c -2.1520893,0.38074 -4.3277803,0.97292 -6.5396345,1.70857 9e-6,0.005 4.46e-4,0.01 4.46e-4,0.015 0,1.93952 -1.42278,2.93759 -4.268324,2.9942 v -1.4471 c -2.099969,0.8263 -4.246835,1.74201 -6.434341,2.68672 v 14.89933 h 6.434341 v -12.91116 h 0.106174 l 5.2026872,12.91116 h 6.7953446 l -5.1389756,-12.78375 c 1.2741171,-0.65122 2.2434358,-1.6139 2.9088095,-2.88801 0.6653834,-1.2883 0.9985115,-2.61905 0.9985115,-3.99228 0,-0.41144 -0.023542,-0.80772 -0.065069,-1.19271 z m -10.8075125,3.2707 c 1.439141,-0.56628 2.86157,-1.09441 4.267878,-1.56213 -0.0026,-1.30845 -0.334873,-2.24524 -0.99762,-2.80927 -0.651223,-0.56628 -1.741312,-0.87067 -3.270258,-0.91313 z m -12.910272,5.45795 c -1.88774,0.78743 -3.815726,1.5587 -5.789317,2.28812 6.17e-4,0.002 8.94e-4,0.005 0.0018,0.008 h -0.02388 c -3.671309,1.35605 -7.49837,2.56145 -11.525991,3.41669 l -1.701049,6.41533 h 6.561756 l 1.12548,-4.73551 h 6.795344 l 1.083008,4.73551 h 6.688726 z m -5.811431,2.29609 c 0.0077,-0.002 0.01482,-0.005 0.0221,-0.008 -0.961759,-4.21586 -1.683208,-8.22673 -2.164245,-12.03254 h -0.08493 c -0.509649,3.92148 -1.224575,7.93498 -2.144778,12.0405 z m -18.607128,4.50368 c -0.755839,0.0703 -1.51821,0.1274 -2.288115,0.16768 -1.203069,0.0629 -3.255705,0.1634 -5.896373,0.042 l 1.088753,5.11864 h 5.818519 z m -8.184488,0.2097 -1.608144,-7.55893 c -0.2973,-1.38739 -0.545048,-2.72523 -0.743246,-4.01351 h -0.08493 c -0.353923,2.19434 -0.608743,3.65958 -0.764469,4.39574 l -1.469677,6.75376 c 1.700038,0.2303 3.26786,0.35847 4.670479,0.42294 z m -4.670479,-0.42294 c -2.646294,-0.35847 -5.606504,-0.96824 -8.741044,-1.97312 l 1.80148,7.51469 h 5.733576 z m -8.741044,-1.97312 -0.698556,-2.91501 c -2.880636,-0.64874 -5.591753,-1.53839 -7.921707,-2.4266 0.524246,0.70993 0.923705,1.46819 1.198035,2.27485 2.532808,1.29667 5.028093,2.29924 7.422228,3.06676 z m -7.422228,-3.06676 c -2.872202,-1.47042 -5.7928,-3.32025 -8.671586,-5.65615 0,0 3.031232,1.68783 7.473551,3.3813 -0.103572,-0.14026 -0.210063,-0.27937 -0.323393,-0.41586 -1.302447,-1.59973 -2.590725,-2.83847 -3.864859,-3.7162 -2.137697,-1.48648 -3.206547,-2.82432 -3.206547,-4.0135 0,-0.67954 0.226509,-1.21041 0.679535,-1.59266 0.467177,-0.39639 1.09716,-0.59459 1.88995,-0.59459 1.189191,0 2.739377,0.5238 4.650566,1.57142 v -0.73703 c -1.285341,-1.67647 -2.451315,-3.47053 -3.479516,-5.36903 0,0 -1.1704,-0.16201 -2.724327,-1.38031 -2.082496,0.15433 -3.809176,0.91452 -5.178357,2.2837 -1.543114,1.54311 -2.314663,3.53924 -2.314663,5.9884 0,1.79794 0.495489,3.43307 1.486483,4.90538 1.005137,1.45818 2.619035,3.03667 4.841676,4.73551 0.920203,0.70785 1.564345,1.30952 1.932428,1.80501 0.382244,0.4955 0.573361,1.02638 0.573361,1.59267 0,0.73616 -0.233589,1.33074 -0.700775,1.78378 -0.467177,0.43886 -1.10424,0.65829 -1.911189,0.65829 -1.38738,0 -3.100372,-0.59459 -5.138975,-1.78378 v 6.60423 c 1.769614,0.84942 3.553398,1.27413 5.351332,1.27413 2.633195,0 4.806293,-0.79987 6.519285,-2.39961 1.712992,-1.6139 2.569483,-3.64542 2.569483,-6.09456 0,-1.00203 -0.152345,-1.94507 -0.453463,-2.83052 z m 6.723672,0.15175 c 3.329371,0.7498 6.871547,1.17849 10.271769,0.90914 -1.597314,-0.46092 -3.150548,-1.04383 -4.654102,-1.73423 h -0.08099 l -0.0088,-0.0412 c -2.377621,-1.10018 -4.626964,-2.47587 -6.7166,-4.09226 z m 24.772929,-56.06115 c 2.820199,0.0423 8.450478,1.16828 8.370748,9.49932 -1.302411,17.17689 -15.634068,19.48439 -28.487358,18.92079 -6.483387,0.73252 -7.972302,4.25197 -13.71235,5.42123 -2.710587,0.6378 -5.634096,-4.67688 -6.750219,-9.1945 -1.116122,-4.51763 0.10662,-6.05919 0.10662,-6.05919 6.073707,-2.64324 8.644372,5.45469 14.030882,5.89949 3.98615,-0.63779 11.853991,-21.70623 24.873794,-24.39512 0,0 0.627819,-0.10614 1.567883,-0.092 z"
                 id="path2370" />
            </g>
          </g>
        </g>
      </g>
      <g
         transform="translate(176.72479,-181.55925)"
         style="display:none;fill:#272727;fill-opacity:1"
         id="g2392">
        <g
           style="display:inline;fill:#272727;fill-opacity:1"
           transform="matrix(4.439134,0,0,4.439134,-374.34854,-477.96389)"
           id="g2390">
          <path
             style="fill:#272727;fill-opacity:1;stroke:none;stroke-width:0.0599312px;stroke-linecap:butt;stroke-linejoin:miter;stroke-opacity:1"
             d="m 46.401056,163.85947 c 0,0 0.06104,-0.70625 0.435961,-0.67137 0.723697,0.0697 0.784371,0.49168 2.833755,1.38636 l -0.357489,0.0436 c 0,0 -0.338492,1.09371 -1.055029,0.78474 -0.712525,-0.30725 -0.313892,-1.04632 -0.313892,-1.04632 -0.651811,-0.43314 -1.543306,-0.497 -1.543306,-0.497 z"
             id="path2380" />
          <path
             style="fill:#272727;fill-opacity:1;stroke:none;stroke-width:0.0599312px;stroke-linecap:butt;stroke-linejoin:miter;stroke-opacity:1"
             d="m 50.769397,164.43495 c 3.295942,-2.31418 2.607795,-5.79864 6.051157,-3.65336 0,0 -1.733049,-0.0598 -3.034297,1.76128 0.898082,0.17439 0.261577,2.06646 -0.845768,1.97927 -0.837046,-0.0872 -0.91552,-0.74985 -0.91552,-0.74985 z"
             id="path2382" />
          <g
             aria-label="NINJA"
             transform="matrix(0.26458333,0,0,0.26458333,70.268842,-50.058116)"
             style="font-style:normal;font-variant:normal;font-weight:normal;font-stretch:normal;font-size:96px;line-height:1.25;font-family:'Agency FB';-inkscape-font-specification:'Agency FB';letter-spacing:0px;word-spacing:0px;display:inline;fill:#272727;fill-opacity:1;stroke:none"
             id="g2388">
            <g
               id="g2386"
               style="fill:#272727;fill-opacity:1">
              <path
                 id="path2384"
                 d="m -55.088914,762.18775 c -18.598662,0 -33.911118,15.73285 -35.875958,35.94675 0,0 -5.484971,0.49792 -4.411671,9.88511 1.520848,8.47641 4.478926,12.30317 6.67192,14.02247 0.264536,-0.0196 0.533987,-0.031 0.810039,-0.031 1.812094,0 3.610029,0.38932 5.393804,1.16795 v 5.61235 c 2.023278,2.63896 4.344646,4.98396 6.907716,6.96655 l -3.10657,-12.96114 h 6.179513 l 3.643657,17.0534 c 0.02988,0.0139 0.05984,0.0274 0.08981,0.0412 h 0.0043 l 3.312729,-17.09454 h 5.606161 l 3.355201,16.90343 h 0.08493 l 3.482614,-16.90343 h 6.349398 l -5.518127,23.021 c 2.429059,-0.22592 4.787072,-0.59985 7.081138,-1.08699 l 5.816301,-21.93401 h 7.219613 l 2.248306,8.47826 c 6.633199,-7.31808 10.745137,-17.48656 10.745137,-28.7298 0,-1.97483 -0.127003,-3.91648 -0.372063,-5.81542 6.12509,4.05756 12.6692611,-4.89997 14.6949283,1.46304 0.2629096,-2.87525 1.2209537,-9.47452 -5.3951223,-11.22958 -5.887495,-1.39205 -10.937144,0.85341 -10.937144,0.85341 17.4965256,-11.19627 11.4700413,-21.59891 9.789522,-23.43112 -1.228752,10.09965 -10.521924,6.66014 -11.17206,21.05628 -5.756579,-13.73857 -18.233533,-23.25415 -32.697732,-23.25415 z m 25.344515,69.08733 c -0.238067,0.26265 -0.478846,0.52253 -0.723333,0.77775 0,0 0.296359,-0.17587 0.807386,-0.45965 z m 0.08407,0.3181 1.969147,7.42488 c 2.208934,-0.92139 4.366759,-1.86036 6.475931,-2.77122 v -8.56586 c -3.994395,1.53193 -7.0656,3.14614 -8.445078,3.9122 z m 8.445078,-3.9122 c 3.921207,-1.50386 8.710754,-2.9188 13.6132466,-3.34546 -1.6195048,-1.02564 -3.6584676,-1.53869 -6.1171366,-1.53869 h -7.49611 z m 13.6132466,-3.34546 c 0.3760619,0.23816 0.7296346,0.50374 1.0604507,0.79721 1.4855243,1.3178 2.3397217,3.03799 2.5681563,5.15668 2.4233716,-0.42874 4.81721646,-0.59064 7.2001458,-0.38622 v -0.62954 h -4.395738 v -4.85585 c -2.1226812,-0.26688 -4.2882971,-0.26894 -6.4330148,-0.0823 z m 6.4330148,0.0823 c 4.0129043,0.50453 7.8720864,1.95185 11.1464024,4.85584 h 4.2068302 v -6.47682 H -1.1689896 Z m 11.1464024,4.85584 H 9.7460331 v 2.17751 c 1.2494349,0.50035 2.5004289,1.1261 3.7560209,1.89086 -1.069602,-1.59562 -2.253418,-2.94091 -3.5246412,-4.06837 z m -0.2313797,2.17751 c -2.1734579,-0.87036 -4.3419667,-1.36118 -6.5192847,-1.54796 v 21.24296 h 6.5192847 z m -13.7194476,-1.16175 c -2.1520893,0.38074 -4.3277803,0.97292 -6.5396345,1.70857 9e-6,0.005 4.46e-4,0.01 4.46e-4,0.015 0,1.93952 -1.42278,2.93759 -4.268324,2.9942 v -1.4471 c -2.099969,0.8263 -4.246835,1.74201 -6.434341,2.68672 v 14.89933 h 6.434341 v -12.91116 h 0.106174 l 5.2026872,12.91116 h 6.7953446 l -5.1389756,-12.78375 c 1.2741171,-0.65122 2.2434358,-1.6139 2.9088095,-2.88801 0.6653834,-1.2883 0.9985115,-2.61905 0.9985115,-3.99228 0,-0.41144 -0.023542,-0.80772 -0.065069,-1.19271 z m -10.8075125,3.2707 c 1.439141,-0.56628 2.86157,-1.09441 4.267878,-1.56213 -0.0026,-1.30845 -0.334873,-2.24524 -0.99762,-2.80927 -0.651223,-0.56628 -1.741312,-0.87067 -3.270258,-0.91313 z m -12.910272,5.45795 c -1.88774,0.78743 -3.815726,1.5587 -5.789317,2.28812 6.17e-4,0.002 8.94e-4,0.005 0.0018,0.008 h -0.02388 c -3.671309,1.35605 -7.49837,2.56145 -11.525991,3.41669 l -1.701049,6.41533 h 6.561756 l 1.12548,-4.73551 h 6.795344 l 1.083008,4.73551 h 6.688726 z m -5.811431,2.29609 c 0.0077,-0.002 0.01482,-0.005 0.0221,-0.008 -0.961759,-4.21586 -1.683208,-8.22673 -2.164245,-12.03254 h -0.08493 c -0.509649,3.92148 -1.224575,7.93498 -2.144778,12.0405 z m -18.607128,4.50368 c -0.755839,0.0703 -1.51821,0.1274 -2.288115,0.16768 -1.203069,0.0629 -3.255705,0.1634 -5.896373,0.042 l 1.088753,5.11864 h 5.818519 z m -8.184488,0.2097 -1.608144,-7.55893 c -0.2973,-1.38739 -0.545048,-2.72523 -0.743246,-4.01351 h -0.08493 c -0.353923,2.19434 -0.608743,3.65958 -0.764469,4.39574 l -1.469677,6.75376 c 1.700038,0.2303 3.26786,0.35847 4.670479,0.42294 z m -4.670479,-0.42294 c -2.646294,-0.35847 -5.606504,-0.96824 -8.741044,-1.97312 l 1.80148,7.51469 h 5.733576 z m -8.741044,-1.97312 -0.698556,-2.91501 c -2.880636,-0.64874 -5.591753,-1.53839 -7.921707,-2.4266 0.524246,0.70993 0.923705,1.46819 1.198035,2.27485 2.532808,1.29667 5.028093,2.29924 7.422228,3.06676 z m -7.422228,-3.06676 c -2.872202,-1.47042 -5.7928,-3.32025 -8.671586,-5.65615 0,0 3.031232,1.68783 7.473551,3.3813 -0.103572,-0.14026 -0.210063,-0.27937 -0.323393,-0.41586 -1.302447,-1.59973 -2.590725,-2.83847 -3.864859,-3.7162 -2.137697,-1.48648 -3.206547,-2.82432 -3.206547,-4.0135 0,-0.67954 0.226509,-1.21041 0.679535,-1.59266 0.467177,-0.39639 1.09716,-0.59459 1.88995,-0.59459 1.189191,0 2.739377,0.5238 4.650566,1.57142 v -0.73703 c -1.285341,-1.67647 -2.451315,-3.47053 -3.479516,-5.36903 0,0 -1.1704,-0.16201 -2.724327,-1.38031 -2.082496,0.15433 -3.809176,0.91452 -5.178357,2.2837 -1.543114,1.54311 -2.314663,3.53924 -2.314663,5.9884 0,1.79794 0.495489,3.43307 1.486483,4.90538 1.005137,1.45818 2.619035,3.03667 4.841676,4.73551 0.920203,0.70785 1.564345,1.30952 1.932428,1.80501 0.382244,0.4955 0.573361,1.02638 0.573361,1.59267 0,0.73616 -0.233589,1.33074 -0.700775,1.78378 -0.467177,0.43886 -1.10424,0.65829 -1.911189,0.65829 -1.38738,0 -3.100372,-0.59459 -5.138975,-1.78378 v 6.60423 c 1.769614,0.84942 3.553398,1.27413 5.351332,1.27413 2.633195,0 4.806293,-0.79987 6.519285,-2.39961 1.712992,-1.6139 2.569483,-3.64542 2.569483,-6.09456 0,-1.00203 -0.152345,-1.94507 -0.453463,-2.83052 z m 6.723672,0.15175 c 3.329371,0.7498 6.871547,1.17849 10.271769,0.90914 -1.597314,-0.46092 -3.150548,-1.04383 -4.654102,-1.73423 h -0.08099 l -0.0088,-0.0412 c -2.377621,-1.10018 -4.626964,-2.47587 -6.7166,-4.09226 z m 24.772929,-56.06115 c 2.820199,0.0423 8.450478,1.16828 8.370748,9.49932 -1.302411,17.17689 -15.634068,19.48439 -28.487358,18.92079 -6.483387,0.73252 -7.972302,4.25197 -13.71235,5.42123 -2.710587,0.6378 -5.634096,-4.67688 -6.750219,-9.1945 -1.116122,-4.51763 0.10662,-6.05919 0.10662,-6.05919 6.073707,-2.64324 8.644372,5.45469 14.030882,5.89949 3.98615,-0.63779 11.853991,-21.70623 24.873794,-24.39512 0,0 0.627819,-0.10614 1.567883,-0.092 z"
                 style="display:inline;fill:#272727;fill-opacity:1;stroke:none;stroke-width:0.232378;stroke-linecap:round;stroke-miterlimit:4;stroke-dasharray:none;stroke-dashoffset:0;stroke-opacity:1;paint-order:normal" />
            </g>
          </g>
        </g>
      </g>
    </g>
  </g>
</svg>
